<?xml version="1.0" encoding="UTF-8"?>
<svg width="1518px" height="518px" viewBox="0 0 1518 518" version="1.1" xmlns="http://www.w3.org/2000/svg" xmlns:xlink="http://www.w3.org/1999/xlink">
    <!-- Generator: Sketch 52.6 (67491) - http://www.bohemiancoding.com/sketch -->
    <title>bazo-logo-inv</title>
    <desc>Created with Sketch.</desc>
    <g id="Page-1" stroke="none" stroke-width="1" fill="none" fill-rule="evenodd">
        <g id="bazo-logo-inv">
            <path d="M284.803,179.768 C284.803,196.986 270.957,210.945 253.867,210.945 C253.541,210.945 253.229,210.945 252.917,210.917 L252.917,210.945 L190.096,210.945 L190.096,148.591 L252.917,148.591 L252.917,148.618 C253.229,148.591 253.541,148.591 253.867,148.591 C270.957,148.591 284.803,162.549 284.803,179.768 Z M284.803,340.375 C284.803,357.593 270.957,371.554 253.867,371.554 C253.541,371.554 253.229,371.554 252.917,371.525 L252.917,371.554 L190.096,371.554 L190.096,309.198 L252.917,309.198 L252.917,309.226 C253.229,309.198 253.541,309.198 253.867,309.198 C270.957,309.197 284.803,323.156 284.803,340.375 Z" id="Shape" fill="#FFFFFF" fill-rule="nonzero"></path>
            <polygon id="Path" fill="#FFFFFF" points="0 507.961 0 2.062 0.199 2.062 0.199 0.659 347.11 0.659 347.11 82.939 94.709 82.939 94.709 431.32 332.012 431.32 418.459 517.766 0.199 517.766 0.199 507.961"></polygon>
            <g id="Group" transform="translate(335.000000, 0.000000)" fill="#E0E0E0">
                <path d="M146.363,234.202 L143.558,234.202 C145.032,239.26 145.925,244.559 146.236,249.987 C145.937372,253.26534 145.48756,256.528147 144.888,259.765 C140.44,284.268 128.038,301.671 102.998,308.701 C105.762,311.634 108.426,314.34 111.005,316.963 C128.038,334.054 141.743,345.562 146.362,368.562 L146.363,517.732 L54.077,426.553 L54.077,323.906 C49.173,295.577 28.059,272.804 0.608,265.548 C29.745,257.372 51.54,231.609 53.85,200.486 C53.979,198.659 54.077,196.788 54.077,194.917 L54.077,0 L146.362,90.614 L146.362,234.202 L146.363,234.202 Z" id="Path"></path>
                <path d="M146.363,234.202 L146.363,248.614 L146.236,249.987 C145.925,244.559 145.032,239.259 143.558,234.202 L146.363,234.202 Z" id="Path"></path>
                <path d="M143.559,234.202 C145.033,239.26 145.926,244.559 146.237,249.987 L146.364,248.614 L146.364,234.202 L143.559,234.202 Z M146.365,248.611 C146.365,249.093 146.321,249.533 146.238,249.984 L146.365,248.611 Z" id="Shape" fill-rule="nonzero"></path>
            </g>
            <path d="M677.65,126.682 C627.98,127.16 578.641,134.922 530.459,146.43 C531.523,166.886 532.591,187.342 533.657,207.798 C584.904,204.838 636.032,199.096 687.401,200.658 C703.378,201.592 720.371,210.412 724.274,226.722 C729.09,242.686 726.893,259.165 727.41,275.607 C688.354,279.47 649.041,281.153 610.148,286.428 C578.95,291.635 544.936,302.573 526.344,329.484 C507.635,357.62 507.177,393.286 510.769,425.586 C514.208,455.076 527.773,485.568 554.486,501.504 C586.194,520.626 625.614,519.604 661.223,514.843 C688.977,510.781 715.973,502.333 741.391,490.737 C770.018,512.414 807.611,517.916 842.861,517.741 C843.656,495.789 844.453,473.836 845.252,451.884 C832.587,450.856 817.568,445.314 814.379,431.79 C810.349,414.246 813.478,395.969 812.489,378.139 C812.149,330.633 813.159,283.099 812.013,235.61 C810.241,204.378 800.833,170.249 774.415,150.335 C747.072,129.987 710.839,126.532 677.651,126.682 L677.65,126.682 Z M727.41,431.492 C696.133,442.014 662.952,448.334 629.887,446.662 C614.093,445.809 600.394,434.062 597.238,418.906 C592.847,399.116 593.163,375.526 607.815,359.777 C624.4,343.017 650.148,345.542 671.688,342.659 L727.41,337.395 L727.41,431.492 Z M872.9,145.366 L872.9,219.532 L1049.396,219.532 L872.9,442.784 L872.9,517.766 L1153.345,517.766 L1153.345,441.218 L977.579,441.218 L1153.345,217.962 L1153.345,142.984 L872.9,142.984 L872.9,144.175 L872.9,145.366 Z M1346.278,126.733 C1304.805,127 1260.054,135.542 1229.455,165.063 C1198.183,196.022 1186.782,240.531 1182.709,282.697 C1178.963,331.067 1180.382,381.044 1196.777,427.269 C1207.386,457.109 1227.188,485.183 1256.737,499.387 C1294.7,518.127 1338.761,519.883 1380.339,516.197 C1418.056,512.541 1457.489,498.297 1480.249,467.01 C1508.639,428.16 1515.723,378.871 1517.023,332.215 C1517.729,283.945 1513.486,233.2 1488.543,190.467 C1472.288,161.599 1442.677,141.721 1410.394,133.835 C1389.532,128.348 1367.819,126.578 1346.278,126.733 Z M1349.061,199.569 C1373.768,199.067 1402.097,206.479 1414.449,229.383 C1429.821,258.683 1430.212,292.776 1430.559,324.937 C1429.749,356.098 1428.674,389.437 1413.275,417.436 C1399.915,440.055 1370.816,445.646 1346.052,444.908 C1322.197,444.943 1294.585,437.356 1283.282,414.687 C1268.614,384.927 1267.967,350.968 1267.558,318.382 C1268.319,287.386 1269.14,254.179 1285.391,226.55 C1298.608,205.488 1325.358,199.338 1349.061,199.569 Z" id="Shape" fill="#FFFFFF" fill-rule="nonzero"></path>
        </g>
    </g>
</svg>