<svg xmlns="http://www.w3.org/2000/svg" width="1517.093" height="517.766"><path d="M284.803 179.768c0 17.218-13.846 31.177-30.936 31.177-.326 0-.638 0-.95-.028v.028h-62.821v-62.354h62.821v.027c.312-.027.624-.027.95-.027 17.09 0 30.936 13.958 30.936 31.177zM284.803 340.375c0 17.218-13.846 31.179-30.936 31.179-.326 0-.638 0-.95-.029v.029h-62.821v-62.356h62.821v.028c.312-.028.624-.028.95-.028 17.09-.001 30.936 13.958 30.936 31.177z"/><path d="M0 507.961V2.062h.199V.659H347.11v82.28H94.709V431.32h237.303l86.447 86.446H.199v-9.805z"/><g fill="#636363"><path d="M481.363 234.202h-2.805c1.474 5.058 2.367 10.357 2.678 15.785a106.962 106.962 0 0 1-1.348 9.778c-4.448 24.503-16.85 41.906-41.89 48.936 2.764 2.933 5.428 5.639 8.007 8.262 17.033 17.091 30.738 28.599 35.357 51.599v149.17l-92.285-91.179V323.906c-4.904-28.329-26.018-51.102-53.469-58.358 29.137-8.176 50.932-33.939 53.242-65.062.129-1.827.227-3.698.227-5.569V0l92.285 90.614v143.588z"/><path d="M481.363 234.202v14.412l-.127 1.373c-.311-5.428-1.204-10.728-2.678-15.785z"/><path d="M478.559 234.202c1.474 5.058 2.367 10.357 2.678 15.785l.127-1.373v-14.412zM481.365 248.611c0 .482-.044.922-.127 1.373"/></g><path d="M677.65 126.682c-49.67.478-99.009 8.24-147.191 19.748 1.064 20.456 2.132 40.912 3.198 61.368 51.247-2.96 102.375-8.702 153.744-7.14 15.977.934 32.97 9.754 36.873 26.064 4.816 15.964 2.619 32.443 3.136 48.885-39.056 3.863-78.369 5.546-117.262 10.821-31.198 5.207-65.212 16.145-83.804 43.056-18.709 28.136-19.167 63.802-15.575 96.102 3.439 29.49 17.004 59.982 43.717 75.918 31.708 19.122 71.128 18.1 106.737 13.339 27.754-4.062 54.75-12.51 80.168-24.106 28.627 21.677 66.22 27.179 101.47 27.004.795-21.952 1.592-43.905 2.391-65.857-12.665-1.028-27.684-6.57-30.873-20.094-4.03-17.544-.901-35.821-1.89-53.651-.34-47.506.67-95.04-.476-142.529-1.772-31.232-11.18-65.361-37.598-85.275-27.343-20.348-63.576-23.803-96.764-23.653zm49.76 304.81c-31.277 10.522-64.458 16.842-97.523 15.17-15.794-.853-29.493-12.6-32.649-27.756-4.391-19.79-4.075-43.38 10.577-59.129 16.585-16.76 42.333-14.235 63.873-17.118l55.722-5.264v94.097zM872.9 145.366v74.166h176.496L872.9 442.784v74.982h280.445v-76.548H977.579l175.766-223.256v-74.978H872.9v1.191zM1346.278 126.733c-41.473.267-86.224 8.809-116.823 38.33-31.272 30.959-42.673 75.468-46.746 117.634-3.746 48.37-2.327 98.347 14.068 144.572 10.609 29.84 30.411 57.914 59.96 72.118 37.963 18.74 82.024 20.496 123.602 16.81 37.717-3.656 77.15-17.9 99.91-49.187 28.39-38.85 35.474-88.139 36.774-134.795.706-48.27-3.537-99.015-28.48-141.748-16.255-28.868-45.866-48.746-78.149-56.632-20.862-5.487-42.575-7.257-64.116-7.102zm2.783 72.836c24.707-.502 53.036 6.91 65.388 29.814 15.372 29.3 15.763 63.393 16.11 95.554-.81 31.161-1.885 64.5-17.284 92.499-13.36 22.619-42.459 28.21-67.223 27.472-23.855.035-51.467-7.552-62.77-30.221-14.668-29.76-15.315-63.719-15.724-96.305.761-30.996 1.582-64.203 17.833-91.832 13.217-21.062 39.967-27.212 63.67-26.981z"/></svg>