<?xml version="1.0" encoding="UTF-8"?>
<svg width="513px" height="513px" viewBox="0 0 513 513" version="1.1" xmlns="http://www.w3.org/2000/svg" xmlns:xlink="http://www.w3.org/1999/xlink">
    <!-- Generator: Sketch 52.6 (67491) - http://www.bohemiancoding.com/sketch -->
    <title>github</title>
    <desc>Created with Sketch.</desc>
    <g id="Page-1" stroke="none" stroke-width="1" fill="none" fill-rule="evenodd">
        <g id="github" fill="#FFFFFF" fill-rule="nonzero">
            <path d="M296.157,354.157 C335.742,351.2 379.785,332.557 392.071,291.328 C403.326,256.028 403.469,212.513 376.429,184.096 C381.926,166.136 387.542,119.402 359.299,125.771 C334.654,128.533 317.133,156.051 291.933,143.046 C261.316,137.106 229.473,139.32 199.557,147.818 C182.26,138.708 151.666,114.344 136.265,130.828 C123.255,155.86 144.774,183.634 122.265,203.358 C106.619,237.148 111.015,279.162 129.467,310.972 C147.86,340.127 183.445,350.751 215.884,354.157 C202.066,369.121 203.45,395.553 175.8,390.372 C145.29,393.836 137.89,359.668 116.295,347.398 C99.485,335.39 80.475,351.05 105.055,360.393 C125.081,376.07 125.148,408.792 152.307,416.997 C165.537,429.107 197.16,411.743 200.917,424.801 C200.443,437.183 201.937,449.758 200.031,461.999 C177.81,478.957 148.346,449.607 127.165,439.189 C48.815,385.559 12.786,279.379 42.289,189.105 C69.879,95.47 164.415,27.583 262.019,31.805 C361.343,32.641 453.544,108.015 474.234,205.135 C496,294.675 455.691,394.666 377.745,443.847 C359.42,451.441 323.457,484.799 311.123,457.551 C310.173,430.051 313.441,402.148 308.539,374.996 C306.331,367.162 302.473,359.479 296.157,354.157 Z M512.024,256.213 C513.406,155.516 448.761,58.366 355.717,20.121 C263.363,-20.234 148.445,1.5 77.263,72.875 C5.023,141.599 -19.822,254.226 16.67,346.994 C51.777,442.269 148.01,510.695 249.643,511.899 C350.303,515.866 448.93,453.447 489.397,361.375 C504.339,328.468 512.067,292.348 512.025,256.213 L512.024,256.213 Z" id="Shape"></path>
        </g>
    </g>
</svg>