<svg version="1.1" width="756.464110" height="243.829850" xmlns="http://www.w3.org/2000/svg" xmlns:xlink="http://www.w3.org/1999/xlink" id="svg3419" overflow="hidden"><defs id="defs3421"></defs><g id="layer1" transform="matrix(1.000000,0.000000,0.000000,1.000000,28.232060,-410.447260)"><path d=" M 49.016052 482.146393 C 43.583401 487.771240 35.646889 490.629211 25.418940 490.629211 C 15.191002 490.629211 7.244365 487.771240 1.837015 482.146393 C -3.110035 477.057709 -5.689773 469.763611 -5.689773 461.053162 C -5.689773 442.473907 5.650990 431.826141 25.418940 431.826141 C 45.186890 431.826141 56.517551 442.473907 56.517551 461.053162 C 56.517551 469.743347 53.927689 477.057709 49.016052 482.146393 M -10.186635 493.684418 C -0.955185 502.061035 12.449390 506.659027 25.418940 506.659027 C 39.314178 506.659027 51.798126 502.061035 60.584438 493.704651 C 69.249367 485.474762 74.059830 473.870972 74.059830 461.053162 C 74.059830 448.240417 69.249367 436.626465 60.584438 428.401642 C 51.798126 420.045288 39.299004 415.447266 25.418940 415.447266 C 11.518652 415.447266 -0.955185 420.045288 -10.186635 428.401642 C -18.441822 436.626465 -23.232059 448.240417 -23.232059 461.078430 C -23.232059 473.870972 -18.800961 485.849091 -10.186635 493.684418" id="path50" stroke="none" fill="#7894BD" fill-rule="nonzero" fill-opacity="1.000000"/><path d=" M 704.936096 640.394653 C 703.423645 644.835876 701.132202 649.277100 696.630310 649.277100 C 695.173523 649.277100 693.656006 649.089966 692.320618 648.761169 L 692.694946 645.341736 C 693.468872 645.599670 694.227600 645.857666 695.679321 645.857666 C 699.108887 645.857666 700.241943 642.999695 701.506531 638.816467 L 702.336121 635.968628 L 690.868896 603.241272 L 695.234192 603.241272 L 704.303772 630.247681 L 704.232910 630.186951 L 704.374512 630.186951 L 713.691956 603.241272 L 717.880249 603.241272 L 704.936035 640.394653 Z M 678.040466 619.282227 L 676.897278 619.282227 C 669.992676 619.282227 661.742493 619.985352 661.742493 627.087219 C 661.742493 631.341309 664.797729 632.919495 668.470093 632.919495 C 677.848267 632.919495 678.040466 624.740173 678.040466 621.254944 L 678.040466 619.282227 Z M 678.419800 630.385254 L 678.298462 630.385254 C 676.512878 634.244751 672.005920 636.343994 668.014832 636.343994 C 658.839050 636.343994 657.367065 630.122192 657.367065 627.213684 C 657.367065 616.378723 668.915222 615.872925 677.271606 615.872925 L 678.040466 615.872925 L 678.040466 614.218811 C 678.040466 608.700195 676.067749 605.913086 670.685669 605.913086 C 667.326965 605.913086 664.155334 606.676880 661.170959 608.573730 L 661.170959 604.704102 C 663.649536 603.500244 667.827698 602.493652 670.685669 602.493652 C 678.677856 602.493652 682.036560 606.105286 682.036560 614.532471 L 682.036560 628.807068 C 682.036560 631.401978 682.036560 633.364624 682.350159 635.585205 L 678.419861 635.585205 L 678.419861 630.385254 Z M 634.033020 605.915588 C 626.926025 605.915588 624.457581 613.518250 624.457581 619.411194 C 624.457581 625.304138 626.926025 632.921997 634.033020 632.921997 C 641.625549 632.921997 643.598267 625.693665 643.598267 619.411194 C 643.598267 613.133850 641.625549 605.915588 634.033020 605.915588 M 620.456421 603.244812 L 624.457581 603.244812 L 624.199585 609.137756 L 624.331116 609.137756 C 625.347839 607.367310 627.806213 602.491089 634.665283 602.491089 C 644.164856 602.491089 647.968689 609.593018 647.968689 619.411194 C 647.968689 628.986633 643.527466 636.346497 634.665283 636.346497 C 629.586731 636.346497 626.541626 634.247314 624.584045 630.058960 L 624.457581 630.058960 L 624.457581 648.891174 L 620.456421 648.891174 L 620.456421 603.244812 Z M 574.476746 632.921021 C 581.442078 632.921021 585.185181 626.901550 585.185181 619.410217 C 585.185181 611.939026 581.442078 605.914551 574.476746 605.914551 C 567.491211 605.914551 563.748047 611.939026 563.748047 619.410217 C 563.748047 626.901550 567.491211 632.921021 574.476746 632.921021 M 574.476746 602.490112 C 584.937378 602.490112 589.565735 610.598572 589.565735 619.410217 C 589.565735 628.221802 584.937378 636.345520 574.476746 636.345520 C 564.005981 636.345520 559.387756 628.221802 559.387756 619.410217 C 559.387756 610.598572 564.005981 602.490112 574.476746 602.490112 M 550.934753 606.675842 L 543.574890 606.675842 L 543.574890 627.592041 C 543.574890 630.505676 544.662415 632.923523 547.889648 632.923523 C 549.417297 632.923523 550.428955 632.604858 551.567078 632.159729 L 551.825012 635.452698 C 550.874084 635.842163 548.906372 636.342957 546.943726 636.342957 C 539.846924 636.342957 539.588928 631.466736 539.588928 625.558594 L 539.588928 606.675842 L 533.250854 606.675842 L 533.250854 603.241272 L 539.588928 603.241272 L 539.588928 595.446350 L 543.574890 594.055359 L 543.574890 603.241272 L 550.934753 603.241272 L 550.934753 606.675842 Z M 494.610779 640.394653 C 493.088226 644.835876 490.806915 649.277100 486.310059 649.277100 C 484.848206 649.277100 483.330719 649.089966 482.005432 648.761169 L 482.379761 645.341736 C 483.138489 645.599670 483.902313 645.857666 485.364166 645.857666 C 488.783600 645.857666 489.916656 642.999695 491.191345 638.816467 L 492.020935 635.968628 L 480.553680 603.241272 L 484.908905 603.241272 L 493.978485 630.247681 L 493.917786 630.186951 L 494.039185 630.186951 L 503.361694 603.241272 L 507.555023 603.241272 L 494.610748 640.394653 Z M 467.718750 619.282227 L 466.580566 619.282227 C 459.665833 619.282227 451.425873 619.985352 451.425873 627.087219 C 451.425873 631.341309 454.470917 632.919495 458.143280 632.919495 C 467.531525 632.919495 467.718689 624.740173 467.718689 621.254944 L 467.718689 619.282227 Z M 468.103180 630.385254 L 467.976715 630.385254 C 466.196167 634.244751 461.704376 636.343994 457.703247 636.343994 C 448.512268 636.343994 447.050415 630.122192 447.050415 627.213684 C 447.050415 616.378723 458.588440 615.872925 466.959991 615.872925 L 467.718750 615.872925 L 467.718750 614.218811 C 467.718750 608.700195 465.761169 605.913086 460.363892 605.913086 C 457.005188 605.913086 453.838654 606.676880 450.859283 608.573730 L 450.859283 604.704102 C 453.332794 603.500244 457.510986 602.493652 460.363892 602.493652 C 468.351044 602.493652 471.709717 606.105286 471.709717 614.532471 L 471.709717 628.807068 C 471.709717 631.401978 471.709717 633.364624 472.028381 635.585205 L 468.103119 635.585205 L 468.103119 630.385254 Z M 429.657806 635.583679 L 424.842285 635.583679 L 416.030670 607.626343 L 415.904205 607.626343 L 407.087585 635.583679 L 402.272064 635.583679 L 391.872131 603.240723 L 396.247589 603.240723 L 404.740540 631.213318 L 404.872040 631.213318 L 413.870819 603.240723 L 418.691345 603.240723 L 427.244995 631.213318 L 427.381561 631.213318 L 436.314575 603.240723 L 440.300537 603.240723 L 429.657806 635.583679 Z M 364.973907 606.675842 L 357.619110 606.675842 L 357.619110 627.592041 C 357.619110 630.505615 358.696533 632.923523 361.928802 632.923523 C 363.451355 632.923523 364.463043 632.604858 365.606201 632.159729 L 365.864197 635.452698 C 364.908173 635.842163 362.950592 636.342957 360.982910 636.342957 C 353.881012 636.342957 353.628082 631.466736 353.628082 625.558594 L 353.628082 606.675842 L 347.279877 606.675842 L 347.279877 603.241272 L 353.628082 603.241272 L 353.628082 595.446350 L 357.619110 594.055359 L 357.619110 603.241272 L 364.973907 603.241272 L 364.973907 606.675842 Z M 326.162384 610.469604 C 326.162384 606.933838 326.162384 605.593384 325.914520 603.241272 L 329.905548 603.241272 L 329.905548 609.463013 L 330.032013 609.463013 C 331.488800 605.841248 334.215240 602.492615 338.332703 602.492615 C 339.288727 602.492615 340.431915 602.679810 341.124908 602.877075 L 341.124908 607.050171 C 340.295349 606.802307 339.222992 606.675842 338.211304 606.675842 C 331.868164 606.675842 330.153412 613.762573 330.153412 619.599915 L 330.153412 635.584229 L 326.162384 635.584229 L 326.162384 610.469604 Z M 308.906891 619.282227 L 307.758667 619.282227 C 300.854034 619.282227 292.603912 619.985352 292.603912 627.087219 C 292.603912 631.341309 295.649017 632.919495 299.331482 632.919495 C 308.714691 632.919495 308.906891 624.740173 308.906891 621.254944 L 308.906891 619.282227 Z M 309.281219 630.385254 L 309.159851 630.385254 C 307.379303 634.244751 302.882446 636.343994 298.891449 636.343994 C 289.690338 636.343994 288.228485 630.122192 288.228485 627.213684 C 288.228485 616.378723 299.771576 615.872925 308.138062 615.872925 L 308.906921 615.872925 L 308.906921 614.218811 C 308.906921 608.700195 306.934174 605.913086 301.552124 605.913086 C 298.188324 605.913086 295.016754 606.676880 292.042450 608.573730 L 292.042450 604.704102 C 294.510925 603.500244 298.699219 602.493652 301.552124 602.493652 C 309.539215 602.493652 312.897949 606.105286 312.897949 614.532471 L 312.897949 628.807068 C 312.897949 631.401978 312.897949 633.364624 313.211548 635.585205 L 309.281250 635.585205 L 309.281250 630.385254 Z M 273.182465 635.583679 L 273.182465 614.090881 C 273.182465 609.523193 271.472748 605.916626 266.338531 605.916626 C 261.963074 605.916626 257.648315 609.649658 257.648315 617.702515 L 257.648315 635.583679 L 253.652252 635.583679 L 253.652252 614.090881 C 253.652252 609.523193 251.947586 605.916626 246.808334 605.916626 C 242.437927 605.916626 238.118103 609.649658 238.118103 617.702515 L 238.118103 635.583679 L 234.127106 635.583679 L 234.127106 610.858582 C 234.127106 608.385071 234.127106 605.840759 233.879242 603.240723 L 237.738739 603.240723 L 237.738739 608.703735 L 237.875305 608.759338 C 239.144958 606.548828 241.041840 602.492065 247.951508 602.492065 C 250.799347 602.492065 255.493484 603.685852 256.515259 609.335999 L 256.641724 609.335999 C 258.093445 605.527100 261.902374 602.492065 266.975891 602.492065 C 273.501129 602.492065 277.173492 607.049622 277.173492 613.332092 L 277.173492 635.583679 L 273.182465 635.583679 Z M 203.240936 630.895630 C 205.648712 632.099548 208.567368 632.918945 211.673187 632.918945 C 215.482101 632.918945 218.835785 630.834961 218.835785 627.157532 C 218.835785 619.479004 203.306702 620.677795 203.306702 611.304749 C 203.306702 604.890747 208.506653 602.493103 213.828033 602.493103 C 215.547852 602.493103 218.962234 602.877563 221.820190 603.944885 L 221.440811 607.435120 C 219.346664 606.489197 216.493759 605.917603 214.273163 605.917603 C 210.155685 605.917603 207.302780 607.177124 207.302780 611.304749 C 207.302780 617.324158 223.211227 616.565430 223.211227 627.157532 C 223.211227 633.996399 216.812439 636.343445 211.936203 636.343445 C 208.820282 636.343445 205.714462 635.969116 202.866623 634.815857 L 203.240936 630.895630 Z M 169.491776 617.128906 C 169.491776 611.493896 167.205414 605.914551 161.246704 605.914551 C 155.353745 605.914551 151.737045 611.817627 151.737045 617.128906 L 169.491776 617.128906 Z M 171.459457 634.570007 C 168.667267 635.713196 165.055634 636.345459 162.071198 636.345459 C 151.352615 636.345459 147.356537 629.112061 147.356537 619.410217 C 147.356537 609.521179 152.814453 602.490112 160.993790 602.490112 C 170.129135 602.490112 173.867233 609.839844 173.867233 618.530029 L 173.867233 620.548340 L 151.737045 620.548340 C 151.737045 627.402344 155.419495 632.921021 162.389877 632.921021 C 165.308533 632.921021 169.552475 631.717102 171.459457 630.503113 L 171.459457 634.570007 Z M 110.768127 588.033386 L 114.759140 588.033386 L 114.759140 608.701721 L 114.895714 608.701721 C 116.600380 605.140686 120.217079 602.490112 124.971909 602.490112 C 133.651993 602.490112 136.004135 608.256592 136.004135 616.248718 L 136.004135 635.581665 L 132.008041 635.581665 L 132.008041 616.319580 C 132.008041 610.714905 130.930603 605.914551 124.334557 605.914551 C 117.227600 605.914551 114.759140 612.637085 114.759140 618.277100 L 114.759140 635.581665 L 110.768127 635.581665 L 110.768127 588.033386 Z M 99.851242 606.675842 L 92.501488 606.675842 L 92.501488 627.592041 C 92.501488 630.505615 93.578911 632.923523 96.806129 632.923523 C 98.328682 632.923523 99.340347 632.604858 100.483528 632.159729 L 100.741501 635.452698 C 99.785477 635.842163 97.822853 636.342957 95.860207 636.342957 C 88.758331 636.342957 88.510460 631.466736 88.510460 625.558594 L 88.510460 606.675842 L 82.162262 606.675842 L 82.162262 603.241272 L 88.510460 603.241272 L 88.510460 595.446350 L 92.501488 594.055359 L 92.501488 603.241272 L 99.851242 603.241272 L 99.851242 606.675842 Z M 708.658997 522.936768 C 707.197144 519.714600 704.177368 517.327087 699.609680 517.327087 C 695.006592 517.327087 691.996887 519.714600 690.540100 522.936768 C 689.710510 524.929749 689.396912 526.376404 689.305847 528.763916 L 709.908447 528.763916 C 709.807312 526.376404 709.483521 524.929749 708.658997 522.936768 M 689.305847 538.035889 C 689.305847 545.016357 693.564941 550.115173 701.162598 550.115173 C 707.090942 550.115173 710.014648 548.450989 713.454285 545.016357 L 721.664001 553.023682 C 716.140320 558.542297 710.834106 561.562134 701.056335 561.562134 C 688.248657 561.562134 675.972107 555.729858 675.972107 533.766602 C 675.972107 516.077637 685.542480 506.082397 699.609680 506.082397 C 714.688538 506.082397 723.232056 517.114624 723.232056 532.006348 L 723.232056 538.035889 L 689.305847 538.035889 Z M 644.828003 518.259338 C 636.699219 518.259338 635.662292 524.926208 635.662292 533.763062 C 635.662292 542.615173 636.699219 549.383240 644.828003 549.383240 C 652.941528 549.383240 653.988586 542.615173 653.988586 533.763062 C 653.988586 524.926208 652.941528 518.259338 644.828003 518.259338 M 662.011108 556.667175 C 658.996338 559.687012 654.094849 561.563660 648.783569 561.563660 C 643.259888 561.563660 639.208130 560.101807 635.662292 556.146179 L 635.662292 580.820740 L 622.116089 580.820740 L 622.116089 506.701019 L 635.247498 506.701019 L 635.247498 511.799835 C 639.010864 507.641876 643.052490 506.078857 648.783569 506.078857 C 654.094849 506.078857 658.996338 507.940308 662.011108 510.975311 C 667.413391 516.387695 667.514587 525.649536 667.514587 533.763062 C 667.514587 541.891846 667.413452 551.249756 662.011108 556.667175 M 589.641602 518.259338 C 581.502747 518.259338 580.475891 524.926208 580.475891 533.763062 C 580.475891 542.615173 581.502747 549.383240 589.641602 549.383240 C 597.734924 549.383240 598.792114 542.615173 598.792114 533.763062 C 598.792114 524.926208 597.734924 518.259338 589.641602 518.259338 M 606.814636 556.667175 C 603.794800 559.687012 598.903381 561.563660 593.582031 561.563660 C 588.073547 561.563660 584.006653 560.101807 580.475891 556.146179 L 580.475891 580.820740 L 566.919617 580.820740 L 566.919617 506.701019 L 580.061157 506.701019 L 580.061157 511.799835 C 583.804260 507.641876 587.856018 506.078857 593.582031 506.078857 C 598.903381 506.078857 603.794800 507.940308 606.814636 510.975311 C 612.216919 516.387695 612.328186 525.649536 612.328186 533.763062 C 612.328186 541.891846 612.216980 551.249756 606.814636 556.667175 M 540.686584 560.933899 L 540.686584 555.941345 C 537.140686 559.689575 532.153198 561.561157 527.155579 561.561157 C 521.738098 561.561157 517.362610 559.785645 514.337769 556.765808 C 509.982544 552.405579 508.829254 547.301697 508.829254 541.368286 L 508.829254 506.703552 L 522.360291 506.703552 L 522.360291 539.491638 C 522.360291 546.886902 527.034180 549.385742 531.303406 549.385742 C 535.592834 549.385742 540.362854 546.886902 540.362854 539.491638 L 540.362854 506.703552 L 553.898926 506.703552 L 553.898926 560.933899 L 540.686584 560.933899 Z M 494.028595 521.479431 C 491.944550 519.405518 490.174133 518.257263 486.855865 518.257263 C 482.687805 518.257263 478.099915 521.383301 478.099915 528.252563 L 478.099915 560.934387 L 464.558746 560.934387 L 464.558746 506.704071 L 477.786285 506.704071 L 477.786285 511.909088 C 480.396393 508.783020 485.601410 506.081879 491.428589 506.081879 C 496.744904 506.081879 500.477936 507.437531 504.221100 511.185730 L 494.028595 521.479431 Z M 446.225861 553.128906 C 440.277252 559.264648 433.215820 561.561157 425.294525 561.561157 C 417.180969 561.561157 410.519165 558.652588 405.309021 553.447571 C 397.807526 545.951111 398.020020 536.684265 398.020020 523.876587 C 398.020020 511.079010 397.807587 501.802032 405.309021 494.325806 C 410.519104 489.115753 416.978638 486.186981 425.294525 486.186981 C 442.467499 486.186981 451.223480 497.436676 453.201355 509.930756 L 438.618195 509.930756 C 436.964111 502.950256 432.689758 499.111023 425.294525 499.111023 C 421.349030 499.111023 418.121826 500.663910 416.037811 503.056488 C 413.220306 506.182526 412.502045 509.617157 412.502045 523.876587 C 412.502045 538.141052 413.220306 541.681885 416.037811 544.802856 C 418.121826 547.195496 421.349030 548.652283 425.294525 548.652283 C 429.669983 548.652283 433.215820 547.094299 435.603424 544.489258 C 438.001068 541.788147 438.936859 538.449646 438.936859 534.600220 L 438.936859 531.792847 L 425.294525 531.792847 L 425.294525 519.718628 L 453.307556 519.718628 L 453.307556 530.543457 C 453.307556 541.257019 451.430939 547.721558 446.225891 553.128906 M 353.444489 520.644836 C 351.886505 519.086853 349.792358 518.257263 347.091217 518.257263 C 344.390045 518.257263 342.407196 519.086853 340.849243 520.644836 C 338.036804 523.462280 337.723175 528.141235 337.723175 533.766113 C 337.723175 539.396057 338.036804 544.176147 340.849243 546.988586 C 342.407196 548.556641 344.390045 549.386230 347.091217 549.386230 C 349.792358 549.386230 351.886505 548.556641 353.444489 546.988586 C 356.251831 544.176147 356.565460 539.396057 356.565460 533.766113 C 356.565460 528.141235 356.251831 523.462280 353.444489 520.644836 M 363.965790 554.899841 C 360.622253 558.445740 355.103607 561.561646 347.091217 561.561646 C 339.078796 561.561646 333.666412 558.445740 330.327911 554.899841 C 325.441559 549.801025 324.197205 543.655151 324.197205 533.766113 C 324.197205 523.978271 325.441559 517.837463 330.327911 512.743713 C 333.666412 509.197815 339.078796 506.081879 347.091217 506.081879 C 355.103607 506.081879 360.622253 509.197815 363.965790 512.743713 C 368.862244 517.837463 370.096497 523.978271 370.096497 533.766113 C 370.096497 543.655151 368.862244 549.801025 363.965790 554.899841 M 300.534363 560.933899 L 300.534363 528.145813 C 300.534363 520.755615 295.850342 518.261841 291.581116 518.261841 C 287.321991 518.261841 282.526703 520.755615 282.526703 528.145813 L 282.526703 560.933899 L 268.995667 560.933899 L 268.995667 506.703552 L 282.213104 506.703552 L 282.213104 511.706238 C 285.758972 507.942841 290.746490 506.081390 295.749176 506.081390 C 301.161591 506.081390 305.537048 507.841675 308.551788 510.871613 C 312.927246 515.236938 314.070435 520.340820 314.070435 526.264099 L 314.070435 560.933899 L 300.534363 560.933899 Z M 242.437927 560.933899 L 242.437927 555.941345 C 238.892044 559.689575 233.899475 561.561157 228.901840 561.561157 C 223.479309 561.561157 219.113983 559.785645 216.094147 556.765808 C 211.713638 552.405579 210.575531 547.301697 210.575531 541.368286 L 210.575531 506.703552 L 224.106552 506.703552 L 224.106552 539.491638 C 224.106552 546.886902 228.790558 549.385742 233.059784 549.385742 C 237.323959 549.385742 242.124313 546.886902 242.124313 539.491638 L 242.124313 506.703552 L 255.645233 506.703552 L 255.645233 560.933899 L 242.437927 560.933899 Z M 174.847031 518.259338 C 166.718292 518.259338 165.681335 524.926208 165.681335 533.763062 C 165.681335 542.615173 166.718292 549.383240 174.847031 549.383240 C 182.970703 549.383240 184.103760 542.615173 184.103760 533.763062 C 184.103760 524.926208 182.970703 518.259338 174.847031 518.259338 M 184.422440 560.931396 L 184.422440 555.842712 C 180.674225 560.005676 176.718613 561.563660 170.997635 561.563660 C 165.681335 561.563660 160.683716 559.687012 157.668945 556.667175 C 152.251480 551.249756 152.150299 541.891846 152.150299 533.763062 C 152.150299 525.649536 152.251434 516.387695 157.668945 510.975311 C 160.683716 507.940308 165.590286 506.078857 170.896484 506.078857 C 176.415115 506.078857 180.578110 507.540710 184.103760 511.496307 L 184.103760 486.831909 L 197.644913 486.831909 L 197.644913 560.931396 L 184.422440 560.931396 Z M 115.174431 508.678345 L 105.811462 535.644287 L 124.228844 535.644287 L 115.174431 508.678345 Z M 132.453674 560.935913 L 128.093399 547.829773 L 101.749634 547.829773 L 97.262894 560.935913 L 82.168839 560.935913 L 109.134789 486.831421 L 120.485680 486.831421 L 147.552795 560.935913 L 132.453674 560.935913 Z" id="path158" stroke="none" fill="#000000" fill-rule="nonzero" fill-opacity="1.000000"/></g></svg>