<?xml version="1.0" encoding="UTF-8" standalone="no"?>
<!-- Created with Inkscape (http://www.inkscape.org/) -->
<svg
   xmlns:dc="http://purl.org/dc/elements/1.1/"
   xmlns:cc="http://web.resource.org/cc/"
   xmlns:rdf="http://www.w3.org/1999/02/22-rdf-syntax-ns#"
   xmlns:svg="http://www.w3.org/2000/svg"
   xmlns="http://www.w3.org/2000/svg"
   xmlns:sodipodi="http://inkscape.sourceforge.net/DTD/sodipodi-0.dtd"
   xmlns:inkscape="http://www.inkscape.org/namespaces/inkscape"
   width="500pt"
   height="410pt"
   id="svg2"
   sodipodi:version="0.32"
   inkscape:version="0.43"
   sodipodi:docbase="/home/draft"
   sodipodi:docname="csg_logo2_final.svg"
   inkscape:export-filename="/home/draft/csg_logo2_2_1.png"
   inkscape:export-xdpi="90"
   inkscape:export-ydpi="90"
   version="1.0">
  <defs
     id="defs4">
    <linearGradient
       id="linearGradient8404">
      <stop
         style="stop-color:#000000;stop-opacity:1;"
         offset="0"
         id="stop8406" />
      <stop
         style="stop-color:#000000;stop-opacity:0;"
         offset="1"
         id="stop8408" />
    </linearGradient>
    <linearGradient
       id="linearGradient5716">
      <stop
         style="stop-color:#000000;stop-opacity:1;"
         offset="0"
         id="stop5718" />
      <stop
         style="stop-color:#000000;stop-opacity:0;"
         offset="1"
         id="stop5720" />
    </linearGradient>
  </defs>
  <sodipodi:namedview
     id="base"
     pagecolor="#ffffff"
     bordercolor="#666666"
     borderopacity="1.0"
     inkscape:pageopacity="0.0"
     inkscape:pageshadow="2"
     inkscape:zoom="0.5"
     inkscape:cx="71.836519"
     inkscape:cy="-53.810931"
     inkscape:document-units="px"
     inkscape:current-layer="layer1"
     inkscape:window-width="1280"
     inkscape:window-height="968"
     inkscape:window-x="0"
     inkscape:window-y="0"
     showgrid="true"
     showguides="true"
     inkscape:guide-bbox="true" />
  <metadata
     id="metadata7">
    <rdf:RDF>
      <cc:Work
         rdf:about="">
        <dc:format>image/svg+xml</dc:format>
        <dc:type
           rdf:resource="http://purl.org/dc/dcmitype/StillImage" />
      </cc:Work>
    </rdf:RDF>
  </metadata>
  <g
     inkscape:label="Layer 1"
     inkscape:groupmode="layer"
     id="layer1">
    <path
       style="font-size:300px;font-style:normal;font-variant:normal;font-weight:bold;font-stretch:normal;text-align:start;line-height:125%;writing-mode:lr-tb;text-anchor:start;fill:#000000;fill-opacity:1;stroke:none;stroke-width:10;stroke-linecap:butt;stroke-linejoin:miter;stroke-miterlimit:4;stroke-opacity:1;font-family:Bitstream Vera Sans"
       d="M 531.28125,218.03376 C 497.92265,218.1258 462.84683,228.66696 440.5,254.37186 C 415.09511,282.73597 410.96503,324.34392 418.5625,360.43058 C 425.51381,393.20493 450.41016,421.03643 482.09375,431.95567 C 515.40641,443.63881 552.62283,441.43049 586.53125,432.76456 C 598.13535,429.62251 601.51982,425.94198 612.375,420.69556 C 612.6324,386.88867 612.63314,353.07938 612.375,319.27244 C 584.40639,319.35891 564.43723,318.9027 536.46875,318.77244 C 536.46875,329.9829 536.46875,341.19337 536.46875,352.40385 C 547.94792,352.40385 559.42708,352.40385 570.90625,352.40385 C 570.90625,367.61731 570.90625,382.83079 570.90625,398.04425 C 552.23864,405.13344 531.30548,404.07092 511.9375,400.68872 C 496.57942,397.9458 483.01825,388.28784 475.97261,374.49966 C 459.05579,343.75785 460.28412,301.96019 483.09375,274.50093 C 498.15573,256.99983 523.19833,254.43269 544.99961,254.74173 C 568.66837,255.27458 591.72731,262.63415 612.3125,273.8787 C 612.3125,260.40747 612.3125,246.93624 612.3125,233.46501 C 586.90618,222.24858 559.0385,217.54984 531.28125,218.03376 z "
       id="text4839"
       sodipodi:nodetypes="cccccccccccccccccc" />
    <path
       style="font-size:300px;font-style:normal;font-variant:normal;font-weight:bold;font-stretch:normal;text-align:start;line-height:125%;writing-mode:lr-tb;text-anchor:start;fill:#000000;fill-opacity:1;stroke:none;stroke-width:1px;stroke-linecap:butt;stroke-linejoin:miter;stroke-opacity:1;font-family:Bitstream Vera Sans"
       d="M 125.5625,218.05075 C 93.34647,218.12767 59.97066,228.81074 38.318581,253.3872 C 14.356029,279.59583 9.034895,317.64222 14.125,351.67745 C 18.335171,381.97393 36.979036,410.16664 64.28125,424.7143 C 93.6706,440.44884 129.25433,442.54389 161.53125,435.88865 C 172.96892,433.29264 184.1316,429.27216 194.4375,424.03142 C 194.4375,410.68427 194.4375,397.33712 194.4375,383.98997 C 168.04675,401.99161 133.15127,407.8654 102.4375,398.39248 C 80.96607,392.29653 68.86778,371.33026 63.46887,351.21232 C 55.97162,324.81056 61.92132,294.79719 80.59375,274.32606 C 96.36116,255.95977 123.15909,252.96382 146.125,255.32965 C 163.43852,257.21958 179.95258,263.96395 194.4375,273.42591 C 194.4375,260.07876 194.4375,246.7316 194.4375,233.38446 C 173.19117,222.58365 149.42413,217.42531 125.5625,218.05075 z "
       id="text3958" />
    <path
       style="fill:#000000;fill-opacity:1;fill-rule:evenodd;stroke:none;stroke-width:10;stroke-linecap:butt;stroke-linejoin:miter;stroke-miterlimit:4;stroke-opacity:1"
       d="M 307.8125,0.35656338 C 195.73376,1.0436074 101.02069,48.697349 28,144.51282 C 30.668071,145.63448 33.331929,146.76616 36,147.88782 C 171.84745,-41.085237 455.61025,-38.904602 584.28125,149.82532 L 593.90625,145.70032 C 522.97918,48.205356 423.90219,0.40946438 310.46875,0.35656338 C 309.58409,0.35615038 308.69501,0.35115338 307.8125,0.35656338 z "
       id="path14564" />
    <path
       style="fill:#000000;fill-opacity:1;fill-rule:evenodd;stroke:none;stroke-width:15;stroke-linecap:butt;stroke-linejoin:miter;stroke-miterlimit:4;stroke-opacity:1"
       d="M 308.15625,84.887817 C 236.27026,85.767267 166.68777,118.22943 116.5,181.73157 C 121.28138,183.74167 126.06237,185.75272 130.84375,187.76282 C 227.98602,65.065482 398.2243,68.177258 489.59375,189.70032 C 494.16832,187.77717 498.73793,185.84222 503.3125,183.91907 C 454.70484,119.38873 387.121,85.565677 313.3125,84.919067 C 312.15741,84.908947 310.99779,84.881687 309.84375,84.887817 C 309.27744,84.890827 308.72228,84.880897 308.15625,84.887817 z "
       id="path11060" />
    <path
       style="fill:#000000;fill-opacity:1;fill-rule:evenodd;stroke:none;stroke-width:25;stroke-linecap:butt;stroke-linejoin:miter;stroke-miterlimit:4;stroke-opacity:1"
       d="M 307.71875,153.98157 C 256.35104,154.79959 210.194,177.32105 183.4375,209.88782 C 192.31183,213.61859 201.18817,217.34455 210.0625,221.07532 C 233.27692,192.79353 272.0789,177.23724 309.375,177.23157 C 346.49518,177.22593 390.64008,192.7296 411.28125,222.60657 C 419.08378,219.32638 426.88497,216.04301 434.6875,212.76282 C 410.32642,177.54366 366.89176,153.85348 308.9375,153.98157 C 308.53239,153.98532 308.12322,153.97513 307.71875,153.98157 z "
       id="path10185" />
    <path
       style="font-size:250px;font-style:normal;font-variant:normal;font-weight:bold;font-stretch:normal;text-align:start;line-height:125%;writing-mode:lr-tb;text-anchor:start;fill:#000000;fill-opacity:1;stroke:none;stroke-width:1px;stroke-linecap:butt;stroke-linejoin:miter;stroke-opacity:1;font-family:Nimbus Sans L Condensed"
       d="M 302.53125,218.01282 C 278.15494,218.77424 258.48547,224.98624 244.6875,235.63782 C 260.4351,242.25812 276.1899,248.86127 291.9375,255.48157 C 296.22169,254.6889 300.96784,254.29407 306.125,254.29407 C 314.97495,254.29407 322.397,255.25956 328.53125,257.29407 C 328.5384,257.29414 328.56118,257.29428 328.5625,257.29407 L 364.25,242.38782 C 367.57624,240.98947 370.89251,239.56742 374.21875,238.16907 C 359.07039,224.95035 336.61776,218.01282 307.6875,218.01282 C 306.84882,218.01282 306.01566,218.00061 305.1875,218.01282 C 304.93323,218.01657 304.69077,218.00793 304.4375,218.01282 C 304.31185,218.01525 304.1879,218.01011 304.0625,218.01282 C 303.93759,218.01552 303.81217,218.00984 303.6875,218.01282 C 303.48735,218.0176 303.29327,218.00731 303.09375,218.01282 C 302.99477,218.01555 302.91133,218.00991 302.8125,218.01282 C 302.71676,218.01564 302.62684,218.00983 302.53125,218.01282 z M 225.375,265.20032 C 223.11783,269.19041 221.67367,274.66443 221.78125,284.35657 C 221.96589,301.59778 228.31662,317.10492 240.96875,326.54407 C 250.55368,334.21338 264.74515,339.22464 293.5,345.41907 L 317.65625,350.73157 C 349.47828,357.81093 358.65625,363.71157 358.65625,377.57532 C 358.65625,394.68377 341.79449,404.73157 312.65625,404.73157 C 281.21763,404.73157 265.51074,393.50321 263.59375,370.20032 L 218.34375,370.20032 C 219.11056,387.30877 221.78633,395.86253 228.6875,406.48157 C 243.25663,428.89953 272.79126,441.01282 312.28125,441.01282 C 369.02414,441.01282 403.90625,414.73897 403.90625,372.26282 C 403.90625,340.99565 387.04877,324.49694 344.875,314.76282 L 289.65625,302.07532 C 277.6129,299.19266 272.71114,292.41669 269.03125,286.82532 C 268.37463,284.60172 268.04227,283.48126 267.875,282.91907 L 225.375,265.20032 z "
       id="text2485" />
    <rect
       style="fill:#000000;fill-opacity:1"
       id="rect10413"
       width="619.5"
       height="4.5"
       x="2.40625"
       y="458" />
    <text
       xml:space="preserve"
       style="font-size:35.21596146px;font-style:normal;font-variant:normal;font-weight:bold;font-stretch:normal;text-align:start;line-height:100%;writing-mode:lr-tb;text-anchor:start;fill:#000000;fill-opacity:1;stroke:none;stroke-width:1px;stroke-linecap:butt;stroke-linejoin:miter;stroke-opacity:1;font-family:Bitstream Vera Sans"
       x="1.3698387"
       y="504.39966"
       id="text10415"
       sodipodi:linespacing="100%"><tspan
         sodipodi:role="line"
         id="tspan10417"
         x="1.3698387"
         y="504.39966">Communication Systems Group</tspan></text>
  </g>
</svg>
