<svg version="1.1" width="1199.000000" height="232.000000" xmlns="http://www.w3.org/2000/svg" xmlns:xlink="http://www.w3.org/1999/xlink" overflow="hidden"><path d=" M 120.000000 105.290001 C 116.294167 106.397041 114.187431 110.298645 115.294472 114.004471 C 115.969948 116.265633 117.738838 118.034523 120.000000 118.709999 L 120.000000 176.289993 C 116.295326 177.395111 114.187973 181.294220 115.293098 184.998901 C 116.398224 188.703583 120.297333 190.810928 124.002007 189.705811 C 127.457283 188.675079 129.564316 185.188263 128.870010 181.649994 L 156.658005 167.054993 C 159.452866 169.726074 163.883881 169.625748 166.554962 166.830887 C 169.226044 164.036026 169.125717 159.605011 166.330856 156.933929 C 166.205551 156.814178 166.075851 156.699112 165.942001 156.588989 L 181.731995 118.995003 C 185.595230 119.141098 188.845428 116.127762 188.991516 112.264534 C 189.137604 108.401299 186.124283 105.151100 182.261047 105.005005 C 182.084763 104.998337 181.908279 104.998337 181.731995 105.005005 L 165.942001 67.411003 C 168.928238 64.955757 169.358704 60.544552 166.903458 57.558308 C 164.448212 54.572063 160.037003 54.141609 157.050766 56.596859 C 156.864212 56.750240 156.685730 56.913174 156.516006 57.085003 L 128.863007 42.383999 C 129.626251 38.594097 127.172653 34.903042 123.382751 34.139801 C 119.592850 33.376556 115.901794 35.830151 115.138550 39.620052 C 114.424042 43.167961 116.531845 46.675560 120.000000 47.709999 L 120.000000 105.290001 Z M 124.000000 105.290001 L 124.000000 51.689999 L 136.600006 84.185997 C 134.661224 85.485268 133.498398 87.666115 133.500000 90.000000 C 133.500000 91.557999 134.009003 92.997002 134.869995 94.160004 L 125.103996 105.723999 C 124.749031 105.548149 124.379684 105.402954 124.000000 105.290001 Z M 124.000000 118.709999 C 124.638794 118.519814 125.246994 118.238953 125.806000 117.875999 L 143.938995 131.556000 C 143.647873 132.337906 143.499191 133.165649 143.500000 134.000000 C 143.500000 135.876999 144.238007 137.580002 145.440002 138.837997 L 124.079002 176.313995 C 124.052719 176.305832 124.026382 176.297836 124.000000 176.289993 L 124.000000 118.709999 Z M 154.677994 163.576996 L 127.938004 177.621994 L 148.914993 140.820007 C 149.628143 140.984833 150.362686 141.037140 151.091995 140.975006 L 157.186005 156.487000 C 155.489075 157.812668 154.498093 159.846649 154.500000 162.000000 C 154.500000 162.542007 154.561996 163.070007 154.677994 163.576996 Z M 177.936996 106.299004 C 177.509720 106.604340 177.117950 106.956535 176.768997 107.349007 L 147.393005 91.226997 C 147.464249 90.821884 147.500046 90.411331 147.500000 90.000000 C 147.500000 88.589996 147.082993 87.277000 146.365997 86.179001 L 159.473007 68.702003 C 160.372955 68.973808 161.318420 69.061554 162.253006 68.960007 L 177.936996 106.300003 Z M 126.984001 45.915001 L 154.636993 60.616001 C 154.219162 62.699856 154.768585 64.860786 156.130997 66.492004 L 143.309998 83.586998 C 142.402573 83.189018 141.420792 82.988907 140.429993 83.000000 L 126.290001 46.532001 C 126.534660 46.341831 126.766502 46.135719 126.984001 45.915001 Z M 162.253998 155.039993 C 161.806824 154.992249 161.356125 154.987228 160.908005 155.024994 L 154.813995 139.513000 C 156.510925 138.187332 157.501907 136.153351 157.500000 134.000000 C 157.500626 133.277222 157.389313 132.558701 157.169998 131.869995 L 177.932999 117.697998 L 177.936996 117.700996 L 162.253998 155.041000 Z M 145.593994 94.802002 L 175.074005 110.980003 C 174.899689 112.179276 175.037094 113.403236 175.473007 114.534004 L 154.912994 128.565994 C 153.809845 127.667130 152.457901 127.127609 151.039001 127.019997 L 144.313995 95.870003 C 144.781479 95.565994 145.211166 95.207474 145.593994 94.802002 Z M 138.072006 96.567001 C 138.838211 96.850166 139.648163 96.996719 140.465012 97.000000 L 147.128998 127.863998 C 146.858078 128.012970 146.597488 128.180023 146.348999 128.363998 L 128.406006 114.827003 C 128.799088 113.936440 129.001419 112.973457 129.000000 112.000000 C 129.002106 110.752357 128.669174 109.527039 128.035995 108.452003 L 138.072006 96.567001 Z M 112.500000 225.000000 C 50.368000 225.000000 0.000000 174.632004 0.000000 112.500000 C 0.000000 50.368000 50.368000 0.000000 112.500000 0.000000 C 174.632004 0.000000 225.000000 50.368000 225.000000 112.500000 C 225.000000 174.632004 174.632004 225.000000 112.500000 225.000000 Z M 77.000000 34.000000 C 75.895432 34.000000 75.000000 34.895432 75.000000 36.000000 L 75.000000 48.000000 C 75.000000 49.104568 75.895432 50.000000 77.000000 50.000000 L 89.000000 50.000000 C 90.104568 50.000000 91.000000 49.104568 91.000000 48.000000 L 91.000000 36.000000 C 91.000000 34.895432 90.104568 34.000000 89.000000 34.000000 L 77.000000 34.000000 Z M 77.000000 54.000000 C 75.895432 54.000000 75.000000 54.895432 75.000000 56.000000 L 75.000000 68.000000 C 75.000000 69.104568 75.895432 70.000000 77.000000 70.000000 L 89.000000 70.000000 C 90.104568 70.000000 91.000000 69.104568 91.000000 68.000000 L 91.000000 56.000000 C 91.000000 54.895432 90.104568 54.000000 89.000000 54.000000 L 77.000000 54.000000 Z M 77.000000 74.000000 C 75.895432 74.000000 75.000000 74.895432 75.000000 76.000000 L 75.000000 88.000000 C 75.000000 89.104568 75.895432 90.000000 77.000000 90.000000 L 89.000000 90.000000 C 90.104568 90.000000 91.000000 89.104568 91.000000 88.000000 L 91.000000 76.000000 C 91.000000 74.895432 90.104568 74.000000 89.000000 74.000000 L 77.000000 74.000000 Z M 77.000000 94.000000 C 75.895432 94.000000 75.000000 94.895432 75.000000 96.000000 L 75.000000 108.000000 C 75.000000 109.104568 75.895432 110.000000 77.000000 110.000000 L 89.000000 110.000000 C 90.104568 110.000000 91.000000 109.104568 91.000000 108.000000 L 91.000000 96.000000 C 91.000000 94.895432 90.104568 94.000000 89.000000 94.000000 L 77.000000 94.000000 Z M 77.000000 114.000000 C 75.895432 114.000000 75.000000 114.895432 75.000000 116.000000 L 75.000000 128.000000 C 75.000000 129.104568 75.895432 130.000000 77.000000 130.000000 L 89.000000 130.000000 C 90.104568 130.000000 91.000000 129.104568 91.000000 128.000000 L 91.000000 116.000000 C 91.000000 114.895432 90.104568 114.000000 89.000000 114.000000 L 77.000000 114.000000 Z M 77.000000 134.000000 C 75.895432 134.000000 75.000000 134.895432 75.000000 136.000000 L 75.000000 148.000000 C 75.000000 149.104568 75.895432 150.000000 77.000000 150.000000 L 89.000000 150.000000 C 90.104568 150.000000 91.000000 149.104568 91.000000 148.000000 L 91.000000 136.000000 C 91.000000 134.895432 90.104568 134.000000 89.000000 134.000000 L 77.000000 134.000000 Z M 97.000000 54.000000 C 95.895432 54.000000 95.000000 54.895432 95.000000 56.000000 L 95.000000 68.000000 C 95.000000 69.104568 95.895432 70.000000 97.000000 70.000000 L 109.000000 70.000000 C 110.104568 70.000000 111.000000 69.104568 111.000000 68.000000 L 111.000000 56.000000 C 111.000000 54.895432 110.104568 54.000000 109.000000 54.000000 L 97.000000 54.000000 Z M 97.000000 74.000000 C 95.895432 74.000000 95.000000 74.895432 95.000000 76.000000 L 95.000000 88.000000 C 95.000000 89.104568 95.895432 90.000000 97.000000 90.000000 L 109.000000 90.000000 C 110.104568 90.000000 111.000000 89.104568 111.000000 88.000000 L 111.000000 76.000000 C 111.000000 74.895432 110.104568 74.000000 109.000000 74.000000 L 97.000000 74.000000 Z M 97.000000 94.000000 C 95.895432 94.000000 95.000000 94.895432 95.000000 96.000000 L 95.000000 108.000000 C 95.000000 109.104568 95.895432 110.000000 97.000000 110.000000 L 109.000000 110.000000 C 110.104568 110.000000 111.000000 109.104568 111.000000 108.000000 L 111.000000 96.000000 C 111.000000 94.895432 110.104568 94.000000 109.000000 94.000000 L 97.000000 94.000000 Z M 97.000000 114.000000 C 95.895432 114.000000 95.000000 114.895432 95.000000 116.000000 L 95.000000 128.000000 C 95.000000 129.104568 95.895432 130.000000 97.000000 130.000000 L 109.000000 130.000000 C 110.104568 130.000000 111.000000 129.104568 111.000000 128.000000 L 111.000000 116.000000 C 111.000000 114.895432 110.104568 114.000000 109.000000 114.000000 L 97.000000 114.000000 Z M 97.000000 134.000000 C 95.895432 134.000000 95.000000 134.895432 95.000000 136.000000 L 95.000000 148.000000 C 95.000000 149.104568 95.895432 150.000000 97.000000 150.000000 L 109.000000 150.000000 C 110.104568 150.000000 111.000000 149.104568 111.000000 148.000000 L 111.000000 136.000000 C 111.000000 134.895432 110.104568 134.000000 109.000000 134.000000 L 97.000000 134.000000 Z M 97.000000 154.000000 C 95.895432 154.000000 95.000000 154.895432 95.000000 156.000000 L 95.000000 168.000000 C 95.000000 169.104568 95.895432 170.000000 97.000000 170.000000 L 109.000000 170.000000 C 110.104568 170.000000 111.000000 169.104568 111.000000 168.000000 L 111.000000 156.000000 C 111.000000 154.895432 110.104568 154.000000 109.000000 154.000000 L 97.000000 154.000000 Z M 77.000000 154.000000 C 75.895432 154.000000 75.000000 154.895432 75.000000 156.000000 L 75.000000 168.000000 C 75.000000 169.104568 75.895432 170.000000 77.000000 170.000000 L 89.000000 170.000000 C 90.104568 170.000000 91.000000 169.104568 91.000000 168.000000 L 91.000000 156.000000 C 91.000000 154.895432 90.104568 154.000000 89.000000 154.000000 L 77.000000 154.000000 Z M 57.000000 154.000000 C 55.895432 154.000000 55.000000 154.895432 55.000000 156.000000 L 55.000000 168.000000 C 55.000000 169.104568 55.895432 170.000000 57.000000 170.000000 L 69.000000 170.000000 C 70.104568 170.000000 71.000000 169.104568 71.000000 168.000000 L 71.000000 156.000000 C 71.000000 154.895432 70.104568 154.000000 69.000000 154.000000 L 57.000000 154.000000 Z M 57.000000 114.000000 C 55.895432 114.000000 55.000000 114.895432 55.000000 116.000000 L 55.000000 128.000000 C 55.000000 129.104568 55.895432 130.000000 57.000000 130.000000 L 69.000000 130.000000 C 70.104568 130.000000 71.000000 129.104568 71.000000 128.000000 L 71.000000 116.000000 C 71.000000 114.895432 70.104568 114.000000 69.000000 114.000000 L 57.000000 114.000000 Z M 37.000000 114.000000 C 35.895432 114.000000 35.000000 114.895432 35.000000 116.000000 L 35.000000 128.000000 C 35.000000 129.104568 35.895432 130.000000 37.000000 130.000000 L 49.000000 130.000000 C 50.104568 130.000000 51.000000 129.104568 51.000000 128.000000 L 51.000000 116.000000 C 51.000000 114.895432 50.104568 114.000000 49.000000 114.000000 L 37.000000 114.000000 Z M 57.000000 94.000000 C 55.895432 94.000000 55.000000 94.895432 55.000000 96.000000 L 55.000000 108.000000 C 55.000000 109.104568 55.895432 110.000000 57.000000 110.000000 L 69.000000 110.000000 C 70.104568 110.000000 71.000000 109.104568 71.000000 108.000000 L 71.000000 96.000000 C 71.000000 94.895432 70.104568 94.000000 69.000000 94.000000 L 57.000000 94.000000 Z M 57.000000 54.000000 C 55.895432 54.000000 55.000000 54.895432 55.000000 56.000000 L 55.000000 68.000000 C 55.000000 69.104568 55.895432 70.000000 57.000000 70.000000 L 69.000000 70.000000 C 70.104568 70.000000 71.000000 69.104568 71.000000 68.000000 L 71.000000 56.000000 C 71.000000 54.895432 70.104568 54.000000 69.000000 54.000000 L 57.000000 54.000000 Z M 77.000000 174.000000 C 75.895432 174.000000 75.000000 174.895432 75.000000 176.000000 L 75.000000 188.000000 C 75.000000 189.104568 75.895432 190.000000 77.000000 190.000000 L 89.000000 190.000000 C 90.104568 190.000000 91.000000 189.104568 91.000000 188.000000 L 91.000000 176.000000 C 91.000000 174.895432 90.104568 174.000000 89.000000 174.000000 L 77.000000 174.000000 Z M 289.899994 71.199997 L 300.899994 71.199997 C 312.500000 71.199997 322.200012 64.000000 322.200012 48.599998 C 322.200012 33.200001 312.600006 25.900000 301.000000 25.900000 L 289.899994 25.900000 L 289.899994 71.199997 Z M 301.399994 84.000000 L 276.100006 84.000000 L 276.100006 13.100000 L 301.500000 13.100000 C 321.700012 13.100000 336.500000 26.200001 336.500000 48.599998 C 336.500000 71.000000 321.600006 84.000000 301.399994 84.000000 Z M 360.799988 84.000000 L 347.500000 84.000000 L 347.500000 34.799999 L 360.799988 34.799999 L 360.799988 84.000000 Z M 345.899994 18.700001 C 345.899994 14.100000 349.600006 10.400000 354.100006 10.400000 C 358.700012 10.400000 362.299988 14.100000 362.299988 18.700001 C 362.299988 23.100000 358.700012 26.799999 354.100006 26.799999 C 349.600006 26.799999 345.899994 23.100000 345.899994 18.700001 Z M 370.799988 70.300003 L 382.200012 67.800003 C 382.500000 71.699997 385.399994 75.300003 391.200012 75.300003 C 395.600006 75.300003 397.700012 73.000000 397.700012 70.400002 C 397.700012 68.199997 396.200012 66.400002 392.399994 65.599998 L 385.899994 64.099998 C 376.399994 62.000000 372.100006 56.299999 372.100006 49.400002 C 372.100006 40.599998 379.899994 33.299999 390.500000 33.299999 C 404.500000 33.299999 409.200012 42.200001 409.799988 47.500000 L 398.700012 50.000000 C 398.299988 47.099998 396.200012 43.400002 390.600006 43.400002 C 387.100006 43.400002 384.299988 45.500000 384.299988 48.299999 C 384.299988 50.700001 386.100006 52.200001 388.799988 52.700001 L 395.799988 54.200001 C 405.500000 56.200001 410.399994 62.099998 410.399994 69.300003 C 410.399994 77.300003 404.200012 85.500000 391.299988 85.500000 C 376.500000 85.500000 371.399994 75.900002 370.799988 70.300003 Z M 437.500000 20.100000 L 437.500000 34.799999 L 447.399994 34.799999 L 447.399994 46.599998 L 437.500000 46.599998 L 437.500000 67.199997 C 437.500000 71.500000 439.500000 72.900002 443.299988 72.900002 C 444.899994 72.900002 446.700012 72.699997 447.399994 72.500000 L 447.399994 83.500000 C 446.200012 84.000000 443.799988 84.699997 439.899994 84.699997 C 430.299988 84.699997 424.299988 79.000000 424.299988 69.500000 L 424.299988 46.599998 L 415.399994 46.599998 L 415.399994 34.799999 L 417.899994 34.799999 C 423.100006 34.799999 425.500000 31.400000 425.500000 27.000000 L 425.500000 20.100000 L 437.500000 20.100000 Z M 488.000000 34.599998 L 488.000000 48.000000 C 486.500000 47.700001 485.200012 47.599998 484.000000 47.599998 C 477.200012 47.599998 471.299988 50.900002 471.299988 61.500000 L 471.299988 84.000000 L 458.000000 84.000000 L 458.000000 34.799999 L 470.899994 34.799999 L 470.899994 42.099998 C 473.899994 35.599998 480.700012 34.400002 484.899994 34.400002 C 486.000000 34.400002 487.000000 34.500000 488.000000 34.599998 Z M 510.700012 84.000000 L 497.399994 84.000000 L 497.399994 34.799999 L 510.700012 34.799999 L 510.700012 84.000000 Z M 495.799988 18.700001 C 495.799988 14.100000 499.500000 10.400000 504.000000 10.400000 C 508.600006 10.400000 512.200012 14.100000 512.200012 18.700001 C 512.200012 23.100000 508.600006 26.799999 504.000000 26.799999 C 499.500000 26.799999 495.799988 23.100000 495.799988 18.700001 Z M 537.799988 84.000000 L 524.900024 84.000000 L 524.900024 11.600000 L 538.000000 11.600000 L 538.000000 40.200001 C 540.200012 36.700001 545.599976 33.500000 552.900024 33.500000 C 567.299988 33.500000 575.599976 44.599998 575.599976 59.200001 C 575.599976 74.099998 566.400024 85.199997 552.400024 85.199997 C 545.599976 85.199997 540.400024 82.199997 537.799988 78.000000 L 537.799988 84.000000 Z M 562.299988 59.299999 C 562.299988 50.299999 556.900024 45.400002 550.099976 45.400002 C 543.400024 45.400002 537.799988 50.299999 537.799988 59.299999 C 537.799988 68.199997 543.400024 73.300003 550.099976 73.300003 C 556.900024 73.300003 562.299988 68.300003 562.299988 59.299999 Z M 618.099976 84.000000 C 617.900024 83.000000 617.700012 80.699997 617.700012 78.699997 C 615.000000 83.300003 609.299988 85.300003 604.099976 85.300003 C 592.200012 85.300003 585.400024 76.599998 585.400024 65.900002 L 585.400024 34.799999 L 598.700012 34.799999 L 598.700012 63.200001 C 598.700012 68.699997 601.500000 73.099998 607.700012 73.099998 C 613.599976 73.099998 617.000000 69.099998 617.000000 63.400002 L 617.000000 34.799999 L 630.299988 34.799999 L 630.299988 75.099998 C 630.299988 78.900002 630.599976 82.300003 630.799988 84.000000 L 618.099976 84.000000 Z M 660.900024 20.100000 L 660.900024 34.799999 L 670.799988 34.799999 L 670.799988 46.599998 L 660.900024 46.599998 L 660.900024 67.199997 C 660.900024 71.500000 662.900024 72.900002 666.700012 72.900002 C 668.299988 72.900002 670.099976 72.699997 670.799988 72.500000 L 670.799988 83.500000 C 669.599976 84.000000 667.200012 84.699997 663.299988 84.699997 C 653.700012 84.699997 647.700012 79.000000 647.700012 69.500000 L 647.700012 46.599998 L 638.799988 46.599998 L 638.799988 34.799999 L 641.299988 34.799999 C 646.500000 34.799999 648.900024 31.400000 648.900024 27.000000 L 648.900024 20.100000 L 660.900024 20.100000 Z M 691.299988 53.799999 L 713.299988 53.799999 C 713.099976 48.900002 709.900024 44.099998 702.299988 44.099998 C 695.400024 44.099998 691.599976 49.299999 691.299988 53.799999 Z M 714.599976 66.599998 L 725.700012 69.900002 C 723.200012 78.400002 715.400024 85.500000 703.299988 85.500000 C 689.799988 85.500000 677.900024 75.800003 677.900024 59.200001 C 677.900024 43.500000 689.500000 33.299999 702.099976 33.299999 C 717.299988 33.299999 726.400024 43.000000 726.400024 58.799999 C 726.400024 60.700001 726.200012 62.700001 726.200012 62.900002 L 691.000000 62.900002 C 691.299988 69.400002 696.799988 74.099998 703.400024 74.099998 C 709.599976 74.099998 713.000000 71.000000 714.599976 66.599998 Z M 783.799988 11.600000 L 783.799988 75.099998 C 783.799988 78.400002 784.000000 82.000000 784.200012 84.000000 L 771.500000 84.000000 C 771.299988 83.000000 771.000000 80.599998 771.000000 78.300003 C 768.799988 82.199997 763.799988 85.199997 757.200012 85.199997 C 743.200012 85.199997 733.200012 74.199997 733.200012 59.299999 C 733.200012 44.900002 742.900024 33.599998 756.799988 33.599998 C 765.299988 33.599998 769.299988 37.099998 770.700012 39.700001 L 770.700012 11.600000 L 783.799988 11.600000 Z M 746.599976 59.299999 C 746.599976 68.099998 751.799988 73.300003 758.799988 73.300003 C 765.599976 73.300003 770.900024 68.099998 770.900024 59.200001 C 770.900024 50.400002 765.599976 45.500000 758.799988 45.500000 C 752.000000 45.500000 746.599976 50.500000 746.599976 59.299999 Z M 871.599976 30.000000 L 859.200012 33.799999 C 858.500000 29.900000 855.299988 23.799999 846.299988 23.799999 C 839.599976 23.799999 835.200012 28.100000 835.200012 32.799999 C 835.200012 36.700001 837.700012 39.799999 842.900024 40.799999 L 852.799988 42.700001 C 865.700012 45.200001 872.599976 53.599998 872.599976 63.599998 C 872.599976 74.500000 863.500000 85.500000 847.000000 85.500000 C 828.200012 85.500000 819.900024 73.400002 818.799988 63.299999 L 831.599976 59.900002 C 832.200012 66.900002 837.099976 73.199997 847.099976 73.199997 C 854.500000 73.199997 858.599976 69.500000 858.599976 64.500000 C 858.599976 60.400002 855.500000 57.200001 850.000000 56.099998 L 840.099976 54.099998 C 828.799988 51.799999 821.500000 44.500000 821.500000 33.799999 C 821.500000 21.200001 832.799988 11.600000 846.200012 11.600000 C 863.400024 11.600000 870.000000 22.000000 871.599976 30.000000 Z M 898.099976 103.400002 L 884.000000 103.400002 L 895.599976 77.800003 L 874.700012 34.799999 L 889.599976 34.799999 L 902.700012 63.599998 L 914.799988 34.799999 L 929.000000 34.799999 L 898.099976 103.400002 Z M 932.200012 70.300003 L 943.599976 67.800003 C 943.900024 71.699997 946.799988 75.300003 952.599976 75.300003 C 957.000000 75.300003 959.099976 73.000000 959.099976 70.400002 C 959.099976 68.199997 957.599976 66.400002 953.799988 65.599998 L 947.299988 64.099998 C 937.799988 62.000000 933.500000 56.299999 933.500000 49.400002 C 933.500000 40.599998 941.299988 33.299999 951.900024 33.299999 C 965.900024 33.299999 970.599976 42.200001 971.200012 47.500000 L 960.099976 50.000000 C 959.700012 47.099998 957.599976 43.400002 952.000000 43.400002 C 948.500000 43.400002 945.700012 45.500000 945.700012 48.299999 C 945.700012 50.700001 947.500000 52.200001 950.200012 52.700001 L 957.200012 54.200001 C 966.900024 56.200001 971.799988 62.099998 971.799988 69.300003 C 971.799988 77.300003 965.599976 85.500000 952.700012 85.500000 C 937.900024 85.500000 932.799988 75.900002 932.200012 70.300003 Z M 998.900024 20.100000 L 998.900024 34.799999 L 1008.799988 34.799999 L 1008.799988 46.599998 L 998.900024 46.599998 L 998.900024 67.199997 C 998.900024 71.500000 1000.900024 72.900002 1004.700012 72.900002 C 1006.299988 72.900002 1008.099976 72.699997 1008.799988 72.500000 L 1008.799988 83.500000 C 1007.599976 84.000000 1005.200012 84.699997 1001.299988 84.699997 C 991.700012 84.699997 985.700012 79.000000 985.700012 69.500000 L 985.700012 46.599998 L 976.799988 46.599998 L 976.799988 34.799999 L 979.299988 34.799999 C 984.500000 34.799999 986.900024 31.400000 986.900024 27.000000 L 986.900024 20.100000 L 998.900024 20.100000 Z M 1029.300049 53.799999 L 1051.300049 53.799999 C 1051.099976 48.900002 1047.900024 44.099998 1040.300049 44.099998 C 1033.400024 44.099998 1029.599976 49.299999 1029.300049 53.799999 Z M 1052.599976 66.599998 L 1063.699951 69.900002 C 1061.199951 78.400002 1053.400024 85.500000 1041.300049 85.500000 C 1027.800049 85.500000 1015.900024 75.800003 1015.900024 59.200001 C 1015.900024 43.500000 1027.500000 33.299999 1040.099976 33.299999 C 1055.300049 33.299999 1064.400024 43.000000 1064.400024 58.799999 C 1064.400024 60.700001 1064.199951 62.700001 1064.199951 62.900002 L 1029.000000 62.900002 C 1029.300049 69.400002 1034.800049 74.099998 1041.400024 74.099998 C 1047.599976 74.099998 1051.000000 71.000000 1052.599976 66.599998 Z M 1088.199951 84.000000 L 1074.900024 84.000000 L 1074.900024 34.799999 L 1087.599976 34.799999 L 1087.599976 40.799999 C 1090.300049 36.000000 1096.599976 33.400002 1102.000000 33.400002 C 1108.699951 33.400002 1114.099976 36.299999 1116.599976 41.599998 C 1120.500000 35.599998 1125.699951 33.400002 1132.199951 33.400002 C 1141.300049 33.400002 1150.000000 38.900002 1150.000000 52.099998 L 1150.000000 84.000000 L 1137.099976 84.000000 L 1137.099976 54.799999 C 1137.099976 49.500000 1134.500000 45.500000 1128.400024 45.500000 C 1122.699951 45.500000 1119.300049 49.900002 1119.300049 55.200001 L 1119.300049 84.000000 L 1106.099976 84.000000 L 1106.099976 54.799999 C 1106.099976 49.500000 1103.400024 45.500000 1097.400024 45.500000 C 1091.599976 45.500000 1088.199951 49.799999 1088.199951 55.200001 L 1088.199951 84.000000 Z M 1159.300049 70.300003 L 1170.699951 67.800003 C 1171.000000 71.699997 1173.900024 75.300003 1179.699951 75.300003 C 1184.099976 75.300003 1186.199951 73.000000 1186.199951 70.400002 C 1186.199951 68.199997 1184.699951 66.400002 1180.900024 65.599998 L 1174.400024 64.099998 C 1164.900024 62.000000 1160.599976 56.299999 1160.599976 49.400002 C 1160.599976 40.599998 1168.400024 33.299999 1179.000000 33.299999 C 1193.000000 33.299999 1197.699951 42.200001 1198.300049 47.500000 L 1187.199951 50.000000 C 1186.800049 47.099998 1184.699951 43.400002 1179.099976 43.400002 C 1175.599976 43.400002 1172.800049 45.500000 1172.800049 48.299999 C 1172.800049 50.700001 1174.599976 52.200001 1177.300049 52.700001 L 1184.300049 54.200001 C 1194.000000 56.200001 1198.900024 62.099998 1198.900024 69.300003 C 1198.900024 77.300003 1192.699951 85.500000 1179.800049 85.500000 C 1165.000000 85.500000 1159.900024 75.900002 1159.300049 70.300003 Z M 322.500000 211.000000 L 315.200012 203.300003 C 309.899994 208.699997 303.799988 212.300003 296.200012 212.300003 C 282.299988 212.300003 274.700012 202.800003 274.700012 193.300003 C 274.700012 184.500000 279.399994 179.399994 286.799988 173.899994 L 287.299988 173.600006 L 286.200012 172.399994 C 282.799988 168.800003 278.399994 163.399994 278.399994 157.000000 C 278.399994 145.100006 288.399994 138.500000 298.000000 138.500000 C 309.299988 138.500000 317.700012 145.800003 317.700012 156.399994 C 317.700012 163.600006 312.799988 168.800003 307.700012 172.600006 L 305.000000 174.600006 L 315.700012 185.899994 L 333.600006 167.199997 L 333.600006 183.800003 L 323.700012 194.199997 L 339.700012 211.000000 L 322.500000 211.000000 Z M 296.399994 200.699997 C 300.700012 200.699997 303.799988 198.399994 307.200012 194.800003 L 295.100006 182.000000 L 293.600006 183.100006 C 290.200012 185.600006 287.899994 188.300003 287.899994 192.500000 C 287.899994 196.600006 291.200012 200.699997 296.399994 200.699997 Z M 291.000000 156.600006 C 291.000000 159.600006 293.399994 162.500000 295.200012 164.300003 L 297.100006 166.399994 L 300.600006 163.800003 C 303.899994 161.399994 305.100006 158.899994 305.100006 156.300003 C 305.100006 152.500000 302.100006 149.500000 297.899994 149.500000 C 294.600006 149.500000 291.000000 151.800003 291.000000 156.600006 Z M 413.899994 211.000000 L 368.500000 211.000000 L 368.500000 140.100006 L 382.299988 140.100006 L 382.299988 197.800003 L 413.899994 197.800003 L 413.899994 211.000000 Z M 433.299988 180.800003 L 455.299988 180.800003 C 455.100006 175.899994 451.899994 171.100006 444.299988 171.100006 C 437.399994 171.100006 433.600006 176.300003 433.299988 180.800003 Z M 456.600006 193.600006 L 467.700012 196.899994 C 465.200012 205.399994 457.399994 212.500000 445.299988 212.500000 C 431.799988 212.500000 419.899994 202.800003 419.899994 186.199997 C 419.899994 170.500000 431.500000 160.300003 444.100006 160.300003 C 459.299988 160.300003 468.399994 170.000000 468.399994 185.800003 C 468.399994 187.699997 468.200012 189.699997 468.200012 189.899994 L 433.000000 189.899994 C 433.299988 196.399994 438.799988 201.100006 445.399994 201.100006 C 451.600006 201.100006 455.000000 198.000000 456.600006 193.600006 Z M 525.799988 138.600006 L 525.799988 202.100006 C 525.799988 205.399994 526.000000 209.000000 526.200012 211.000000 L 513.500000 211.000000 C 513.299988 210.000000 513.000000 207.600006 513.000000 205.300003 C 510.799988 209.199997 505.799988 212.199997 499.200012 212.199997 C 485.200012 212.199997 475.200012 201.199997 475.200012 186.300003 C 475.200012 171.899994 484.899994 160.600006 498.799988 160.600006 C 507.299988 160.600006 511.299988 164.100006 512.700012 166.699997 L 512.700012 138.600006 L 525.799988 138.600006 Z M 488.600006 186.300003 C 488.600006 195.100006 493.799988 200.300003 500.799988 200.300003 C 507.600006 200.300003 512.900024 195.100006 512.900024 186.199997 C 512.900024 177.399994 507.600006 172.500000 500.799988 172.500000 C 494.000000 172.500000 488.600006 177.500000 488.600006 186.300003 Z M 536.700012 213.699997 L 548.700012 210.500000 C 549.599976 215.899994 553.900024 219.800003 560.200012 219.800003 C 568.599976 219.800003 573.299988 215.600006 573.299988 206.100006 L 573.299988 202.500000 C 571.299988 205.699997 566.700012 208.800003 559.599976 208.800003 C 546.500000 208.800003 536.700012 198.699997 536.700012 184.899994 C 536.700012 171.899994 546.099976 160.899994 559.599976 160.899994 C 567.400024 160.899994 571.900024 164.300003 573.599976 167.600006 L 573.599976 161.800003 L 586.400024 161.800003 L 586.400024 205.699997 C 586.400024 219.199997 579.099976 231.500000 560.599976 231.500000 C 547.099976 231.500000 538.099976 223.100006 536.700012 213.699997 Z M 561.900024 197.399994 C 568.700012 197.399994 573.500000 192.500000 573.500000 184.899994 C 573.500000 177.300003 568.299988 172.500000 561.900024 172.500000 C 555.299988 172.500000 550.099976 177.300003 550.099976 184.899994 C 550.099976 192.600006 555.000000 197.399994 561.900024 197.399994 Z M 609.599976 180.800003 L 631.599976 180.800003 C 631.400024 175.899994 628.200012 171.100006 620.599976 171.100006 C 613.700012 171.100006 609.900024 176.300003 609.599976 180.800003 Z M 632.900024 193.600006 L 644.000000 196.899994 C 641.500000 205.399994 633.700012 212.500000 621.599976 212.500000 C 608.099976 212.500000 596.200012 202.800003 596.200012 186.199997 C 596.200012 170.500000 607.799988 160.300003 620.400024 160.300003 C 635.599976 160.300003 644.700012 170.000000 644.700012 185.800003 C 644.700012 187.699997 644.500000 189.699997 644.500000 189.899994 L 609.299988 189.899994 C 609.599976 196.399994 615.099976 201.100006 621.700012 201.100006 C 627.900024 201.100006 631.299988 198.000000 632.900024 193.600006 Z M 685.200012 161.600006 L 685.200012 175.000000 C 683.700012 174.699997 682.400024 174.600006 681.200012 174.600006 C 674.400024 174.600006 668.500000 177.899994 668.500000 188.500000 L 668.500000 211.000000 L 655.200012 211.000000 L 655.200012 161.800003 L 668.099976 161.800003 L 668.099976 169.100006 C 671.099976 162.600006 677.900024 161.399994 682.099976 161.399994 C 683.200012 161.399994 684.200012 161.500000 685.200012 161.600006 Z M 690.700012 197.300003 L 702.099976 194.800003 C 702.400024 198.699997 705.299988 202.300003 711.099976 202.300003 C 715.500000 202.300003 717.599976 200.000000 717.599976 197.399994 C 717.599976 195.199997 716.099976 193.399994 712.299988 192.600006 L 705.799988 191.100006 C 696.299988 189.000000 692.000000 183.300003 692.000000 176.399994 C 692.000000 167.600006 699.799988 160.300003 710.400024 160.300003 C 724.400024 160.300003 729.099976 169.199997 729.700012 174.500000 L 718.599976 177.000000 C 718.200012 174.100006 716.099976 170.399994 710.500000 170.399994 C 707.000000 170.399994 704.200012 172.500000 704.200012 175.300003 C 704.200012 177.699997 706.000000 179.199997 708.700012 179.699997 L 715.700012 181.199997 C 725.400024 183.199997 730.299988 189.100006 730.299988 196.300003 C 730.299988 204.300003 724.099976 212.500000 711.200012 212.500000 C 696.400024 212.500000 691.299988 202.899994 690.700012 197.300003 Z M 812.099976 211.000000 L 766.700012 211.000000 L 766.700012 140.100006 L 780.500000 140.100006 L 780.500000 197.800003 L 812.099976 197.800003 L 812.099976 211.000000 Z M 819.299988 197.600006 C 819.299988 188.800003 825.799988 183.899994 834.000000 182.699997 L 846.099976 180.899994 C 848.900024 180.500000 849.799988 179.100006 849.799988 177.399994 C 849.799988 173.899994 847.099976 171.000000 841.500000 171.000000 C 835.700012 171.000000 832.500000 174.699997 832.099976 179.000000 L 820.299988 176.500000 C 821.099976 168.800003 828.200012 160.300003 841.400024 160.300003 C 857.000000 160.300003 862.799988 169.100006 862.799988 179.000000 L 862.799988 203.199997 C 862.799988 205.800003 863.099976 209.300003 863.400024 211.000000 L 851.200012 211.000000 C 850.900024 209.699997 850.700012 207.000000 850.700012 205.100006 C 848.200012 209.000000 843.500000 212.399994 836.200012 212.399994 C 825.700012 212.399994 819.299988 205.300003 819.299988 197.600006 Z M 839.000000 202.500000 C 844.599976 202.500000 849.799988 199.800003 849.799988 191.100006 L 849.799988 188.899994 L 838.700012 190.600006 C 835.299988 191.100006 832.599976 193.000000 832.599976 196.800003 C 832.599976 199.699997 834.700012 202.500000 839.000000 202.500000 Z M 889.099976 211.000000 L 876.200012 211.000000 L 876.200012 138.600006 L 889.299988 138.600006 L 889.299988 167.199997 C 891.500000 163.699997 896.900024 160.500000 904.200012 160.500000 C 918.599976 160.500000 926.900024 171.600006 926.900024 186.199997 C 926.900024 201.100006 917.700012 212.199997 903.700012 212.199997 C 896.900024 212.199997 891.700012 209.199997 889.099976 205.000000 L 889.099976 211.000000 Z M 913.599976 186.300003 C 913.599976 177.300003 908.200012 172.399994 901.400024 172.399994 C 894.700012 172.399994 889.099976 177.300003 889.099976 186.300003 C 889.099976 195.199997 894.700012 200.300003 901.400024 200.300003 C 908.200012 200.300003 913.599976 195.300003 913.599976 186.300003 Z" fill="#303030" fill-rule="evenodd"/></svg>